<svg width="264" height="258" viewBox="0 0 264 258" fill="none" xmlns="http://www.w3.org/2000/svg">
<path d="M260 255H5.18921C4.63692 255 4.18921 254.552 4.18921 254V213.29V171.579V132.607C4.18921 132.055 4.63692 131.607 5.18921 131.607H14.8159C7.57189 116.713 0.0255857 92.7023 4.18921 74.3423C7.15146 61.28 16.041 51.0781 35.1836 49.0552V4C35.1836 3.44772 35.6313 3 36.1836 3H46.5814C47.1337 3 47.5814 3.44772 47.5814 4V48.7966C52.3127 49.1621 56.4216 50.0978 59.9791 51.4853C62.0177 41.5414 72.6186 22.8019 98.7552 26.3068C99.3295 26.3838 99.8675 25.9734 99.9603 25.4014C103.274 4.97467 151.447 -12.8316 166.246 26.4621C173.12 24.2135 187.832 23.2196 193.23 36.5007C193.481 37.1204 194.244 37.3722 194.816 37.0254C211.152 27.1225 247.25 38.2768 233.264 72.825C232.994 73.4914 233.469 74.2651 234.18 74.3657C252.607 76.972 263.209 124.746 221.295 125.515C220.742 125.525 220.264 125.972 220.264 126.524V131.607H260C260.552 131.607 261 132.055 261 132.607V171.579V213.29V254C261 254.552 260.552 255 260 255Z" fill="#3A6857"/>
<path d="M92.7447 213.29H261M261 213.29V254C261 254.552 260.552 255 260 255H5.18921C4.63692 255 4.18921 254.552 4.18921 254V213.29M261 213.29V171.579M4.18921 213.29H53.7803M4.18921 213.29V171.579M4.18921 171.579V132.607C4.18921 132.055 4.63692 131.607 5.18921 131.607H14.8159M4.18921 171.579H175.987M209.638 171.579H261M261 171.579V132.607C261 132.055 260.552 131.607 260 131.607H220.264M14.8159 131.607H66.178M14.8159 131.607C7.57189 116.713 0.0255858 92.7023 4.18921 74.3423M35.1836 49.0552C39.727 48.575 43.8479 48.5083 47.5814 48.7966M35.1836 49.0552C32.3498 30.9807 21.0063 18.931 15.3978 15.1655M35.1836 49.0552C16.041 51.0781 7.15146 61.28 4.18921 74.3423M35.1836 49.0552V4C35.1836 3.44772 35.6313 3 36.1836 3H46.5814C47.1337 3 47.5814 3.44772 47.5814 4V48.7966M79.1577 102.062C72.0733 106.407 64.0527 119.789 66.178 131.607M79.1577 102.062C79.1577 102.062 80.0493 98.3725 80.278 96.8483M79.1577 102.062C81.8144 100.324 85.2649 99.3304 88.8988 98.5862M66.178 131.607H130.824M47.5814 48.7966C47.5814 26.3443 59.9791 20.4966 66.178 20.3793M47.5814 48.7966C52.3127 49.1621 56.4216 50.0978 59.9791 51.4853M35.1836 74.2552L4.18921 74.3423M53.7803 96.8483H80.278M80.278 96.8483C81.872 86.2262 81.1492 72.2576 73.8313 62.0897M59.9791 51.4853C62.0177 41.5414 72.6186 22.8019 98.7552 26.3068C99.3295 26.3838 99.8675 25.9734 99.9603 25.4014C103.274 4.97467 151.447 -12.8316 166.246 26.4621M59.9791 51.4853C66.1159 53.8787 70.6119 57.6164 73.8313 62.0897M166.246 26.4621C173.12 24.2135 187.832 23.2196 193.23 36.5007C193.481 37.1204 194.244 37.3721 194.816 37.0254C211.152 27.1225 247.25 38.2768 233.264 72.825C232.994 73.4914 233.469 74.2651 234.18 74.3657C252.607 76.972 263.209 124.746 221.295 125.515C220.742 125.525 220.264 125.972 220.264 126.524V131.607M166.246 26.4621C160.831 28.4897 150.71 34.9779 150.002 48.1862M220.264 131.607H193.698M111.038 37.7586C108.869 38.9302 104.71 42.6115 104.044 47.6716C103.955 48.3481 103.284 48.835 102.624 48.6642C95.4085 46.7983 81.5721 47.084 73.8313 62.0897M193.698 131.607L223.143 92.5161C223.498 92.0439 223.369 91.3679 222.864 91.0604L210.347 83.4364C209.894 83.1605 209.304 83.2862 209.003 83.7228L175.987 131.607M193.698 131.607H177.5M175.987 131.607H177.5M175.987 131.607L183.383 58.1736C183.449 57.5191 184.118 57.1054 184.733 57.339L196.383 61.764C196.868 61.9482 197.131 62.4728 196.99 62.972L177.5 131.607M175.987 131.607L179.467 71.8375C179.501 71.2633 179.044 70.7793 178.469 70.7793H167.246C166.693 70.7793 166.246 71.227 166.246 71.7793V131.607M175.987 131.607H166.246M166.246 131.607H130.824M166.246 131.607C166.246 116.497 160.763 110.887 158.069 109.078C158.003 109.034 157.934 109 157.859 108.974C156.687 108.557 155.83 108.232 154.733 107.991M130.824 131.607C126.219 98.8512 104.635 95.3637 88.8988 98.5862M130.824 131.607C131.516 121.735 137.311 104.172 154.733 107.991M88.8988 98.5862C92.441 71.296 150.306 56.8759 154.733 107.991" stroke="#E5E5E5" stroke-width="6" stroke-linecap="round" stroke-linejoin="round"/>
</svg>